<svg version="1.1" id="Layer_1" xmlns="http://www.w3.org/2000/svg" xmlns:xlink="http://www.w3.org/1999/xlink" x="0px" y="0px"
	 width="100%" viewBox="0 0 512 512" enable-background="new 0 0 512 512" xml:space="preserve">
<path fill="#FEFEFE" opacity="1.000000" stroke="none" 
	d="
M282.000000,513.000000 
	C188.022812,513.000000 94.545624,513.000000 1.034216,513.000000 
	C1.034216,342.397797 1.034216,171.795563 1.034216,1.096670 
	C171.560532,1.096670 342.121155,1.096670 512.840881,1.096670 
	C512.840881,171.666550 512.840881,342.333252 512.840881,513.000000 
	C436.128876,513.000000 359.314423,513.000000 282.000000,513.000000 
M212.502045,291.075043 
	C208.503281,291.074036 204.504471,291.061218 200.505768,291.074402 
	C191.462997,291.104218 188.813065,293.682892 188.812775,302.556274 
	C188.810791,363.041595 188.818909,423.526886 188.831711,484.012207 
	C188.833725,493.534760 191.302185,495.964600 201.018677,495.965149 
	C295.495758,495.970551 389.972839,495.968750 484.449921,495.960571 
	C493.216827,495.959808 495.960785,493.154449 495.961517,484.242126 
	C495.966400,424.090088 495.958008,363.938049 495.970581,303.786011 
	C495.972748,293.482513 493.655914,291.082306 483.435699,291.081726 
	C393.457520,291.076660 303.479340,291.076599 212.502045,291.075043 
M109.649765,208.932861 
	C142.052322,213.621979 174.643570,214.913345 207.323685,213.972687 
	C243.679977,212.926193 279.700287,209.127808 314.785767,198.979202 
	C328.048492,195.142929 341.100891,190.644043 352.349915,182.212952 
	C356.998749,178.728668 359.498291,174.460861 359.436279,168.246704 
	C359.182129,142.757843 359.335938,117.264961 359.322449,91.773560 
	C359.321777,90.550941 359.157990,89.328400 359.061127,87.980148 
	C353.469482,90.834328 348.440948,93.731430 343.156616,96.044037 
	C311.968658,109.693077 278.788269,114.751297 245.282852,117.835716 
	C199.183853,122.079460 153.117676,121.391190 107.217148,114.922470 
	C84.636887,111.740257 62.320763,107.294968 41.034393,98.865913 
	C33.264141,95.789024 25.857912,91.792854 18.036119,88.098228 
	C18.036119,114.189697 18.350357,140.155594 17.853662,166.105972 
	C17.694921,174.399628 20.703274,180.244675 27.468777,183.773987 
	C36.843262,188.664307 46.342022,193.865952 56.413166,196.748749 
	C73.610374,201.671295 91.293541,204.896118 109.649765,208.932861 
M172.502243,231.094284 
	C153.076111,229.697403 133.584167,228.894928 114.240517,226.753098 
	C90.096107,224.079727 66.251526,219.395401 43.437977,210.728699 
	C34.856689,207.468735 26.687466,203.124100 18.032658,199.136795 
	C18.032658,200.798141 18.032597,202.418823 18.032667,204.039505 
	C18.033731,228.034744 18.504135,252.043640 17.805342,276.018494 
	C17.525047,285.635132 21.249813,291.960052 29.056221,295.831390 
	C38.976021,300.750824 49.130341,305.471069 59.637138,308.878571 
	C84.745232,317.021606 110.790276,320.667908 137.013809,322.937225 
	C148.403595,323.922882 159.834854,324.429413 171.761841,325.186218 
	C171.761841,316.867126 171.733566,309.240692 171.767578,301.614563 
	C171.844101,284.453339 182.328644,274.053558 199.539413,274.051056 
	C250.696060,274.043579 301.852722,274.042999 353.009369,274.039734 
	C355.092285,274.039581 357.175171,274.039703 359.017334,274.039703 
	C359.017334,248.586685 359.017334,223.863464 359.017334,198.628662 
	C336.839111,212.287125 312.606628,218.430725 287.908875,223.008682 
	C250.093918,230.018051 211.889404,231.972458 172.502243,231.094284 
M326.062317,35.334301 
	C298.655579,26.501902 270.354187,22.448488 241.800140,20.170580 
	C195.159698,16.449821 148.590149,17.303822 102.227081,24.030897 
	C80.820007,27.136971 59.561832,31.156815 39.692326,40.105602 
	C33.724251,42.793491 27.920534,46.450165 23.028219,50.778332 
	C16.049219,56.952549 16.150639,64.429001 23.062075,70.685799 
	C27.429871,74.639885 32.467319,78.565643 37.915562,80.477272 
	C52.435482,85.571869 67.116142,90.633316 82.135445,93.796783 
	C120.929367,101.967812 160.352585,103.842957 199.914520,103.177559 
	C239.291458,102.515282 278.375031,99.328651 316.553833,88.931213 
	C329.090851,85.516937 341.431152,81.424019 351.840851,73.241013 
	C361.804565,65.408607 362.229675,55.750919 351.870728,48.558052 
	C344.216034,43.242908 335.184418,39.910736 326.062317,35.334301 
M171.748108,398.500153 
	C171.748108,379.747894 171.748108,360.995636 171.748108,342.273254 
	C163.767822,341.829529 156.458588,341.464386 149.154938,341.009521 
	C123.226753,339.394623 97.507828,336.260529 72.178154,330.322845 
	C53.410465,325.923401 35.190155,320.074677 18.032707,309.369598 
	C18.032707,311.546082 18.032667,312.967804 18.032713,314.389526 
	C18.033401,336.206024 18.348682,358.029449 17.867804,379.835327 
	C17.694502,387.693939 20.587976,393.284882 26.912933,396.804962 
	C34.999294,401.305359 43.297028,405.703400 51.984379,408.794617 
	C78.286186,418.153656 105.708336,422.410034 133.402252,424.939972 
	C145.958054,426.086975 158.561905,426.708038 171.748108,427.608978 
	C171.748108,417.729706 171.748108,408.614929 171.748108,398.500153 
z"/>
<path fill="#020202" opacity="1.000000" stroke="none" 
	d="
M213.001617,291.075043 
	C303.479340,291.076599 393.457520,291.076660 483.435699,291.081726 
	C493.655914,291.082306 495.972748,293.482513 495.970581,303.786011 
	C495.958008,363.938049 495.966400,424.090088 495.961517,484.242126 
	C495.960785,493.154449 493.216827,495.959808 484.449921,495.960571 
	C389.972839,495.968750 295.495758,495.970551 201.018677,495.965149 
	C191.302185,495.964600 188.833725,493.534760 188.831711,484.012207 
	C188.818909,423.526886 188.810791,363.041595 188.812775,302.556274 
	C188.813065,293.682892 191.462997,291.104218 200.505768,291.074402 
	C204.504471,291.061218 208.503281,291.074036 213.001617,291.075043 
M376.020264,362.708679 
	C372.220795,343.766907 357.180420,332.319702 338.338989,334.029602 
	C321.248657,335.580597 308.217072,350.675110 308.139282,369.158417 
	C308.069183,385.812317 307.921021,402.469635 308.167206,419.120148 
	C308.530548,443.696228 332.907745,459.986145 355.181854,450.585754 
	C358.221191,449.303070 360.196960,448.695862 362.944519,451.386261 
	C366.103699,454.479706 371.176636,453.766968 374.182159,450.679169 
	C376.998108,447.786102 377.281250,443.205994 374.776550,439.707489 
	C373.917816,438.508057 372.869720,437.444214 372.550995,437.071045 
	C373.917755,431.245911 376.056915,426.148407 376.150360,421.013702 
	C376.498688,401.874115 376.175629,382.722290 376.020264,362.708679 
M261.094299,334.027618 
	C234.139313,331.065216 214.945511,358.098511 226.040405,382.051941 
	C232.032028,394.987549 242.623886,401.496521 256.902130,402.050293 
	C264.631622,402.350067 270.608154,406.632568 273.001892,413.351349 
	C275.378815,420.022949 273.496429,427.298492 268.184265,431.971924 
	C263.156372,436.395142 255.646454,437.445526 249.533661,434.374084 
	C243.333649,431.258820 240.393250,426.055389 239.915222,419.171173 
	C239.529968,413.622986 235.880890,410.440613 230.807724,410.735077 
	C226.000214,411.014130 222.941040,414.492096 222.961899,419.857147 
	C222.969620,421.840454 223.114410,423.865875 223.535614,425.798218 
	C227.493561,443.955750 243.506104,455.228485 261.958221,452.923248 
	C279.177856,450.771973 291.792664,435.134003 291.018768,416.898254 
	C290.282593,399.552063 275.746277,385.711517 257.512756,384.995941 
	C247.411057,384.599487 240.131989,377.652374 239.995377,368.277374 
	C239.861923,359.119293 246.865860,351.470917 255.831177,350.984467 
	C265.688049,350.449646 273.054474,357.114929 274.011688,367.434601 
	C274.559845,373.344055 278.023651,376.693817 283.205444,376.325562 
	C288.221405,375.969147 291.097687,372.426819 291.036285,366.681519 
	C290.866058,350.755585 279.631195,338.160187 261.094299,334.027618 
M427.500854,436.124725 
	C422.045227,436.124725 416.589630,436.124725 410.676208,436.124725 
	C410.676208,434.411316 410.676178,433.131866 410.676208,431.852417 
	C410.677063,402.710205 410.704803,373.567932 410.658936,344.425781 
	C410.648102,337.555664 407.537628,333.910858 402.033569,333.909088 
	C396.514191,333.907318 393.581390,337.451080 393.572052,344.490631 
	C393.528534,377.296387 393.512421,410.102234 393.555481,442.907990 
	C393.565216,450.329193 396.474579,453.150269 403.892548,453.171448 
	C419.712433,453.216644 435.532532,453.209778 451.352509,453.187958 
	C457.747711,453.179138 461.646881,450.105652 461.833557,445.051178 
	C462.027588,439.797241 457.880219,436.167236 451.481018,436.125732 
	C443.821289,436.076080 436.160889,436.120850 427.500854,436.124725 
z"/>
<path fill="#010101" opacity="1.000000" stroke="none" 
	d="
M109.211182,208.883453 
	C91.293541,204.896118 73.610374,201.671295 56.413166,196.748749 
	C46.342022,193.865952 36.843262,188.664307 27.468777,183.773987 
	C20.703274,180.244675 17.694921,174.399628 17.853662,166.105972 
	C18.350357,140.155594 18.036119,114.189697 18.036119,88.098228 
	C25.857912,91.792854 33.264141,95.789024 41.034393,98.865913 
	C62.320763,107.294968 84.636887,111.740257 107.217148,114.922470 
	C153.117676,121.391190 199.183853,122.079460 245.282852,117.835716 
	C278.788269,114.751297 311.968658,109.693077 343.156616,96.044037 
	C348.440948,93.731430 353.469482,90.834328 359.061127,87.980148 
	C359.157990,89.328400 359.321777,90.550941 359.322449,91.773560 
	C359.335938,117.264961 359.182129,142.757843 359.436279,168.246704 
	C359.498291,174.460861 356.998749,178.728668 352.349915,182.212952 
	C341.100891,190.644043 328.048492,195.142929 314.785767,198.979202 
	C279.700287,209.127808 243.679977,212.926193 207.323685,213.972687 
	C174.643570,214.913345 142.052322,213.621979 109.211182,208.883453 
z"/>
<path fill="#010101" opacity="1.000000" stroke="none" 
	d="
M173.001648,231.107605 
	C211.889404,231.972458 250.093918,230.018051 287.908875,223.008682 
	C312.606628,218.430725 336.839111,212.287125 359.017334,198.628662 
	C359.017334,223.863464 359.017334,248.586685 359.017334,274.039703 
	C357.175171,274.039703 355.092285,274.039581 353.009369,274.039734 
	C301.852722,274.042999 250.696060,274.043579 199.539413,274.051056 
	C182.328644,274.053558 171.844101,284.453339 171.767578,301.614563 
	C171.733566,309.240692 171.761841,316.867126 171.761841,325.186218 
	C159.834854,324.429413 148.403595,323.922882 137.013809,322.937225 
	C110.790276,320.667908 84.745232,317.021606 59.637138,308.878571 
	C49.130341,305.471069 38.976021,300.750824 29.056221,295.831390 
	C21.249813,291.960052 17.525047,285.635132 17.805342,276.018494 
	C18.504135,252.043640 18.033731,228.034744 18.032667,204.039505 
	C18.032597,202.418823 18.032658,200.798141 18.032658,199.136795 
	C26.687466,203.124100 34.856689,207.468735 43.437977,210.728699 
	C66.251526,219.395401 90.096107,224.079727 114.240517,226.753098 
	C133.584167,228.894928 153.076111,229.697403 173.001648,231.107605 
z"/>
<path fill="#010101" opacity="1.000000" stroke="none" 
	d="
M326.414307,35.514694 
	C335.184418,39.910736 344.216034,43.242908 351.870728,48.558052 
	C362.229675,55.750919 361.804565,65.408607 351.840851,73.241013 
	C341.431152,81.424019 329.090851,85.516937 316.553833,88.931213 
	C278.375031,99.328651 239.291458,102.515282 199.914520,103.177559 
	C160.352585,103.842957 120.929367,101.967812 82.135445,93.796783 
	C67.116142,90.633316 52.435482,85.571869 37.915562,80.477272 
	C32.467319,78.565643 27.429871,74.639885 23.062075,70.685799 
	C16.150639,64.429001 16.049219,56.952549 23.028219,50.778332 
	C27.920534,46.450165 33.724251,42.793491 39.692326,40.105602 
	C59.561832,31.156815 80.820007,27.136971 102.227081,24.030897 
	C148.590149,17.303822 195.159698,16.449821 241.800140,20.170580 
	C270.354187,22.448488 298.655579,26.501902 326.414307,35.514694 
z"/>
<path fill="#020202" opacity="1.000000" stroke="none" 
	d="
M171.748108,399.000183 
	C171.748108,408.614929 171.748108,417.729706 171.748108,427.608978 
	C158.561905,426.708038 145.958054,426.086975 133.402252,424.939972 
	C105.708336,422.410034 78.286186,418.153656 51.984379,408.794617 
	C43.297028,405.703400 34.999294,401.305359 26.912933,396.804962 
	C20.587976,393.284882 17.694502,387.693939 17.867804,379.835327 
	C18.348682,358.029449 18.033401,336.206024 18.032713,314.389526 
	C18.032667,312.967804 18.032707,311.546082 18.032707,309.369598 
	C35.190155,320.074677 53.410465,325.923401 72.178154,330.322845 
	C97.507828,336.260529 123.226753,339.394623 149.154938,341.009521 
	C156.458588,341.464386 163.767822,341.829529 171.748108,342.273254 
	C171.748108,360.995636 171.748108,379.747894 171.748108,399.000183 
z"/>
<path fill="#FAFAFA" opacity="1.000000" stroke="none" 
	d="
M376.062378,363.141876 
	C376.175629,382.722290 376.498688,401.874115 376.150360,421.013702 
	C376.056915,426.148407 373.917755,431.245911 372.550995,437.071045 
	C372.869720,437.444214 373.917816,438.508057 374.776550,439.707489 
	C377.281250,443.205994 376.998108,447.786102 374.182159,450.679169 
	C371.176636,453.766968 366.103699,454.479706 362.944519,451.386261 
	C360.196960,448.695862 358.221191,449.303070 355.181854,450.585754 
	C332.907745,459.986145 308.530548,443.696228 308.167206,419.120148 
	C307.921021,402.469635 308.069183,385.812317 308.139282,369.158417 
	C308.217072,350.675110 321.248657,335.580597 338.338989,334.029602 
	C357.180420,332.319702 372.220795,343.766907 376.062378,363.141876 
M325.181732,415.328033 
	C325.295441,417.483826 325.183716,419.679993 325.561127,421.788574 
	C327.379059,431.946625 336.421173,437.912872 345.723785,435.212708 
	C341.873840,429.300293 341.626892,425.167450 344.921936,421.793060 
	C348.336273,418.296509 352.124268,418.492035 358.989319,422.688995 
	C358.989319,403.098999 359.163940,383.687988 358.792572,364.287415 
	C358.739594,361.520813 356.522247,358.356689 354.471375,356.154236 
	C349.456818,350.768951 343.016113,349.442749 336.193115,352.096649 
	C328.923584,354.924225 325.310913,360.723785 325.234253,368.418427 
	C325.081665,383.733795 325.184113,399.051636 325.181732,415.328033 
z"/>
<path fill="#FAFAFA" opacity="1.000000" stroke="none" 
	d="
M261.537903,334.067932 
	C279.631195,338.160187 290.866058,350.755585 291.036285,366.681519 
	C291.097687,372.426819 288.221405,375.969147 283.205444,376.325562 
	C278.023651,376.693817 274.559845,373.344055 274.011688,367.434601 
	C273.054474,357.114929 265.688049,350.449646 255.831177,350.984467 
	C246.865860,351.470917 239.861923,359.119293 239.995377,368.277374 
	C240.131989,377.652374 247.411057,384.599487 257.512756,384.995941 
	C275.746277,385.711517 290.282593,399.552063 291.018768,416.898254 
	C291.792664,435.134003 279.177856,450.771973 261.958221,452.923248 
	C243.506104,455.228485 227.493561,443.955750 223.535614,425.798218 
	C223.114410,423.865875 222.969620,421.840454 222.961899,419.857147 
	C222.941040,414.492096 226.000214,411.014130 230.807724,410.735077 
	C235.880890,410.440613 239.529968,413.622986 239.915222,419.171173 
	C240.393250,426.055389 243.333649,431.258820 249.533661,434.374084 
	C255.646454,437.445526 263.156372,436.395142 268.184265,431.971924 
	C273.496429,427.298492 275.378815,420.022949 273.001892,413.351349 
	C270.608154,406.632568 264.631622,402.350067 256.902130,402.050293 
	C242.623886,401.496521 232.032028,394.987549 226.040405,382.051941 
	C214.945511,358.098511 234.139313,331.065216 261.537903,334.067932 
z"/>
<path fill="#FAFAFA" opacity="1.000000" stroke="none" 
	d="
M428.000824,436.124725 
	C436.160889,436.120850 443.821289,436.076080 451.481018,436.125732 
	C457.880219,436.167236 462.027588,439.797241 461.833557,445.051178 
	C461.646881,450.105652 457.747711,453.179138 451.352509,453.187958 
	C435.532532,453.209778 419.712433,453.216644 403.892548,453.171448 
	C396.474579,453.150269 393.565216,450.329193 393.555481,442.907990 
	C393.512421,410.102234 393.528534,377.296387 393.572052,344.490631 
	C393.581390,337.451080 396.514191,333.907318 402.033569,333.909088 
	C407.537628,333.910858 410.648102,337.555664 410.658936,344.425781 
	C410.704803,373.567932 410.677063,402.710205 410.676208,431.852417 
	C410.676178,433.131866 410.676208,434.411316 410.676208,436.124725 
	C416.589630,436.124725 422.045227,436.124725 428.000824,436.124725 
z"/>
<path fill="#030303" opacity="1.000000" stroke="none" 
	d="
M325.181458,414.848267 
	C325.184113,399.051636 325.081665,383.733795 325.234253,368.418427 
	C325.310913,360.723785 328.923584,354.924225 336.193115,352.096649 
	C343.016113,349.442749 349.456818,350.768951 354.471375,356.154236 
	C356.522247,358.356689 358.739594,361.520813 358.792572,364.287415 
	C359.163940,383.687988 358.989319,403.098999 358.989319,422.688995 
	C352.124268,418.492035 348.336273,418.296509 344.921936,421.793060 
	C341.626892,425.167450 341.873840,429.300293 345.723785,435.212708 
	C336.421173,437.912872 327.379059,431.946625 325.561127,421.788574 
	C325.183716,419.679993 325.295441,417.483826 325.181458,414.848267 
z"/>
</svg>